<svg width="1340" height="357" viewBox="0 0 1340 357" fill="none" xmlns="http://www.w3.org/2000/svg">
<path d="M514.311 173.01C515.131 178.928 516.742 183.352 519.145 186.281C523.539 191.613 531.068 194.279 541.732 194.279C548.119 194.279 553.305 193.576 557.289 192.17C564.848 189.475 568.627 184.465 568.627 177.141C568.627 172.863 566.752 169.553 563.002 167.209C559.252 164.924 553.363 162.902 545.336 161.145L531.625 158.068C518.148 155.021 508.832 151.711 503.676 148.137C494.945 142.16 490.58 132.814 490.58 120.1C490.58 108.498 494.799 98.8594 503.236 91.1836C511.674 83.5078 524.066 79.6699 540.414 79.6699C554.066 79.6699 565.697 83.3027 575.307 90.5684C584.975 97.7754 590.043 108.264 590.512 122.033H564.496C564.027 114.24 560.629 108.703 554.301 105.422C550.082 103.254 544.838 102.17 538.568 102.17C531.596 102.17 526.029 103.576 521.869 106.389C517.709 109.201 515.629 113.127 515.629 118.166C515.629 122.795 517.68 126.252 521.781 128.537C524.418 130.061 530.043 131.848 538.656 133.898L560.98 139.26C570.766 141.604 578.148 144.738 583.129 148.664C590.863 154.758 594.73 163.576 594.73 175.119C594.73 186.955 590.189 196.799 581.107 204.65C572.084 212.443 559.311 216.34 542.787 216.34C525.912 216.34 512.641 212.502 502.973 204.826C493.305 197.092 488.471 186.486 488.471 173.01H514.311ZM634.109 117.199V174.943C634.109 180.393 634.754 184.494 636.043 187.248C638.328 192.111 642.81 194.543 649.49 194.543C658.045 194.543 663.904 191.086 667.068 184.172C668.709 180.422 669.529 175.471 669.529 169.318V117.199H694.929V213H670.584V199.465C670.349 199.758 669.763 200.637 668.826 202.102C667.888 203.566 666.775 204.855 665.486 205.969C661.56 209.484 657.752 211.887 654.06 213.176C650.427 214.465 646.15 215.109 641.228 215.109C627.048 215.109 617.498 210.012 612.576 199.816C609.822 194.191 608.445 185.9 608.445 174.943V117.199H634.109ZM822.638 115.09C826.857 115.09 831.017 115.91 835.118 117.551C839.22 119.191 842.941 122.062 846.28 126.164C848.976 129.504 850.792 133.605 851.73 138.469C852.316 141.691 852.609 146.408 852.609 152.619L852.433 213H826.769V152.004C826.769 148.371 826.183 145.383 825.011 143.039C822.784 138.586 818.683 136.359 812.706 136.359C805.792 136.359 801.017 139.23 798.38 144.973C797.032 148.02 796.359 151.682 796.359 155.959V213H771.134V155.959C771.134 150.275 770.548 146.145 769.376 143.566C767.267 138.938 763.136 136.623 756.984 136.623C749.835 136.623 745.03 138.938 742.57 143.566C741.222 146.203 740.548 150.129 740.548 155.344V213H715.148V117.375H739.493V131.35C742.599 126.369 745.529 122.824 748.282 120.715C753.146 116.965 759.445 115.09 767.179 115.09C774.503 115.09 780.421 116.701 784.933 119.924C788.566 122.912 791.32 126.75 793.195 131.438C796.476 125.812 800.548 121.682 805.411 119.045C810.568 116.408 816.31 115.09 822.638 115.09ZM979.175 115.09C983.393 115.09 987.554 115.91 991.655 117.551C995.757 119.191 999.477 122.062 1002.82 126.164C1005.51 129.504 1007.33 133.605 1008.27 138.469C1008.85 141.691 1009.15 146.408 1009.15 152.619L1008.97 213H983.305V152.004C983.305 148.371 982.72 145.383 981.548 143.039C979.321 138.586 975.22 136.359 969.243 136.359C962.329 136.359 957.554 139.23 954.917 144.973C953.569 148.02 952.895 151.682 952.895 155.959V213H927.671V155.959C927.671 150.275 927.085 146.145 925.913 143.566C923.804 138.938 919.673 136.623 913.52 136.623C906.372 136.623 901.567 138.938 899.106 143.566C897.759 146.203 897.085 150.129 897.085 155.344V213H871.684V117.375H896.03V131.35C899.136 126.369 902.065 122.824 904.819 120.715C909.682 116.965 915.981 115.09 923.716 115.09C931.04 115.09 936.958 116.701 941.47 119.924C945.102 122.912 947.856 126.75 949.731 131.438C953.013 125.812 957.085 121.682 961.948 119.045C967.104 116.408 972.846 115.09 979.175 115.09ZM1081.48 166.418C1079.9 167.414 1078.29 168.234 1076.65 168.879C1075.07 169.465 1072.87 170.021 1070.06 170.549L1064.43 171.604C1059.16 172.541 1055.38 173.684 1053.09 175.031C1049.23 177.316 1047.29 180.861 1047.29 185.666C1047.29 189.943 1048.47 193.049 1050.81 194.982C1053.21 196.857 1056.11 197.795 1059.51 197.795C1064.9 197.795 1069.85 196.213 1074.36 193.049C1078.93 189.885 1081.31 184.113 1081.48 175.734V166.418ZM1066.28 154.729C1070.91 154.143 1074.22 153.41 1076.21 152.531C1079.78 151.008 1081.57 148.635 1081.57 145.412C1081.57 141.486 1080.19 138.791 1077.44 137.326C1074.74 135.803 1070.76 135.041 1065.49 135.041C1059.57 135.041 1055.38 136.506 1052.92 139.436C1051.16 141.604 1049.99 144.533 1049.4 148.225H1025.23C1025.76 139.846 1028.1 132.961 1032.26 127.57C1038.89 119.133 1050.25 114.914 1066.37 114.914C1076.85 114.914 1086.17 116.994 1094.31 121.154C1102.46 125.314 1106.53 133.166 1106.53 144.709V188.654C1106.53 191.701 1106.59 195.393 1106.71 199.729C1106.88 203.01 1107.38 205.236 1108.2 206.408C1109.02 207.58 1110.25 208.547 1111.89 209.309V213H1084.65C1083.89 211.066 1083.36 209.25 1083.06 207.551C1082.77 205.852 1082.54 203.918 1082.36 201.75C1078.9 205.5 1074.92 208.693 1070.41 211.33C1065.02 214.436 1058.92 215.988 1052.13 215.988C1043.46 215.988 1036.28 213.527 1030.59 208.605C1024.97 203.625 1022.16 196.594 1022.16 187.512C1022.16 175.734 1026.7 167.209 1035.78 161.936C1040.76 159.064 1048.08 157.014 1057.75 155.783L1066.28 154.729ZM1177.29 114.914C1177.76 114.914 1178.14 114.943 1178.43 115.002C1178.78 115.002 1179.51 115.031 1180.63 115.09V140.754C1179.04 140.578 1177.64 140.461 1176.41 140.402C1175.18 140.344 1174.18 140.314 1173.42 140.314C1163.34 140.314 1156.57 143.596 1153.12 150.158C1151.18 153.85 1150.22 159.533 1150.22 167.209V213H1124.99V117.199H1148.9V133.898C1152.77 127.512 1156.13 123.146 1159.01 120.803C1163.69 116.877 1169.79 114.914 1177.29 114.914ZM1195.66 231.369L1198.82 231.545C1201.28 231.662 1203.63 231.574 1205.86 231.281C1208.08 230.988 1209.96 230.314 1211.48 229.26C1212.94 228.264 1214.29 226.184 1215.52 223.02C1216.81 219.855 1217.34 217.922 1217.11 217.219L1181.95 117.199H1209.81L1230.73 187.863L1250.5 117.199H1277.13L1244.26 211.418C1237.94 229.582 1232.93 240.832 1229.23 245.168C1225.54 249.562 1218.16 251.76 1207.09 251.76C1204.86 251.76 1203.07 251.73 1201.72 251.672C1200.38 251.672 1198.36 251.584 1195.66 251.408V231.369Z" fill="black"/>
<path d="M508.809 251.02C513.66 251.02 517.855 251.957 521.395 253.832C526.527 256.527 529.668 261.25 530.816 268H523.891C523.047 264.227 521.301 261.484 518.652 259.773C516.004 258.039 512.664 257.172 508.633 257.172C503.852 257.172 499.82 258.965 496.539 262.551C493.281 266.137 491.652 271.48 491.652 278.582C491.652 284.723 493 289.727 495.695 293.594C498.391 297.438 502.785 299.359 508.879 299.359C513.543 299.359 517.398 298.012 520.445 295.316C523.516 292.598 525.086 288.215 525.156 282.168H508.984V276.367H531.66V304H527.16L525.473 297.355C523.105 299.957 521.008 301.762 519.18 302.77C516.109 304.504 512.207 305.371 507.473 305.371C501.355 305.371 496.094 303.391 491.688 299.43C486.883 294.461 484.48 287.641 484.48 278.969C484.48 270.32 486.824 263.441 491.512 258.332C495.965 253.457 501.73 251.02 508.809 251.02ZM563.351 252.355H601.004V258.684H570.172V274.363H598.683V280.34H570.172V297.848H601.531V304H563.351V252.355ZM630.867 252.355H639.129L665.215 294.191V252.355H671.859V304H664.019L637.547 262.199V304H630.867V252.355ZM703.726 252.355H741.378V258.684H710.546V274.363H739.058V280.34H710.546V297.848H741.906V304H703.726V252.355ZM795.253 276.016C798.535 276.016 801.124 275.359 803.023 274.047C804.945 272.734 805.906 270.367 805.906 266.945C805.906 263.266 804.57 260.758 801.898 259.422C800.468 258.719 798.558 258.367 796.167 258.367H779.081V276.016H795.253ZM772.085 252.355H795.992C799.929 252.355 803.175 252.93 805.73 254.078C810.581 256.281 813.007 260.348 813.007 266.277C813.007 269.371 812.363 271.902 811.074 273.871C809.808 275.84 808.027 277.422 805.73 278.617C807.745 279.438 809.257 280.516 810.265 281.852C811.296 283.188 811.87 285.355 811.988 288.355L812.234 295.281C812.304 297.25 812.468 298.715 812.726 299.676C813.148 301.316 813.898 302.371 814.976 302.84V304H806.398C806.163 303.555 805.976 302.98 805.835 302.277C805.695 301.574 805.578 300.215 805.484 298.199L805.062 289.586C804.898 286.211 803.644 283.949 801.3 282.801C799.964 282.168 797.867 281.852 795.007 281.852H779.081V304H772.085V252.355ZM869.941 282.836L862.101 260.02L853.769 282.836H869.941ZM858.445 252.355H866.355L885.093 304H877.429L872.191 288.531H851.765L846.175 304H839.003L858.445 252.355ZM943.855 252.355V258.508H926.452V304H919.351V258.508H901.948V252.355H943.855ZM991.472 250.949C1000.59 250.949 1007.34 253.879 1011.72 259.738C1015.14 264.309 1016.85 270.156 1016.85 277.281C1016.85 284.992 1014.9 291.402 1010.98 296.512C1006.39 302.512 999.839 305.512 991.331 305.512C983.386 305.512 977.14 302.887 972.593 297.637C968.538 292.574 966.511 286.176 966.511 278.441C966.511 271.457 968.245 265.48 971.714 260.512C976.167 254.137 982.753 250.949 991.472 250.949ZM992.175 299.254C998.339 299.254 1002.79 297.051 1005.53 292.645C1008.3 288.215 1009.68 283.129 1009.68 277.387C1009.68 271.316 1008.09 266.43 1004.9 262.727C1001.74 259.023 997.401 257.172 991.893 257.172C986.55 257.172 982.19 259.012 978.815 262.691C975.44 266.348 973.753 271.75 973.753 278.898C973.753 284.617 975.194 289.445 978.077 293.383C980.983 297.297 985.682 299.254 992.175 299.254ZM1069.39 276.016C1072.67 276.016 1075.26 275.359 1077.16 274.047C1079.08 272.734 1080.05 270.367 1080.05 266.945C1080.05 263.266 1078.71 260.758 1076.04 259.422C1074.61 258.719 1072.7 258.367 1070.31 258.367H1053.22V276.016H1069.39ZM1046.23 252.355H1070.13C1074.07 252.355 1077.32 252.93 1079.87 254.078C1084.72 256.281 1087.15 260.348 1087.15 266.277C1087.15 269.371 1086.5 271.902 1085.21 273.871C1083.95 275.84 1082.17 277.422 1079.87 278.617C1081.89 279.438 1083.4 280.516 1084.41 281.852C1085.44 283.188 1086.01 285.355 1086.13 288.355L1086.37 295.281C1086.44 297.25 1086.61 298.715 1086.87 299.676C1087.29 301.316 1088.04 302.371 1089.12 302.84V304H1080.54C1080.3 303.555 1080.12 302.98 1079.98 302.277C1079.83 301.574 1079.72 300.215 1079.62 298.199L1079.2 289.586C1079.04 286.211 1077.78 283.949 1075.44 282.801C1074.1 282.168 1072.01 281.852 1069.15 281.852H1053.22V304H1046.23V252.355Z" fill="black"/>
<path d="M355.99 165.247C351.454 145.281 340.272 127.447 324.276 114.668C308.279 101.888 288.416 94.9209 267.941 94.9074H222.765V86.9112C232.353 82.9381 240.28 75.7849 245.215 66.6543C250.149 57.5238 251.789 46.9728 249.859 36.7753C247.929 26.5778 242.547 17.3558 234.617 10.6599C226.687 3.96397 216.694 0.202507 206.317 0.00794464C195.941 -0.186618 185.813 3.19759 177.638 9.59155C169.463 15.9855 163.739 24.9993 161.428 35.1172C159.117 45.2352 160.361 55.8403 164.949 65.1494C169.538 74.4585 177.192 81.9038 186.624 86.2335V94.9074H141.448C120.94 94.9199 101.048 101.908 85.0381 114.724C69.0287 127.54 57.8552 145.42 53.3539 165.428C38.6207 167.277 25.0695 174.441 15.2453 185.575C5.42117 196.709 0 211.047 0 225.896C0 240.745 5.42117 255.083 15.2453 266.217C25.0695 277.351 38.6207 284.515 53.3539 286.364C57.8463 306.38 69.016 324.271 85.0262 337.095C101.036 349.92 120.934 356.915 141.448 356.93H267.941C288.416 356.916 308.279 349.949 324.276 337.169C340.272 324.39 351.454 306.556 355.99 286.59C371.057 285.106 385.034 278.071 395.201 266.853C405.369 255.635 411 241.036 411 225.896C411 210.756 405.369 196.157 395.201 184.939C385.034 173.721 371.057 166.686 355.99 165.202V165.247ZM205.462 36.1782C207.249 36.1782 208.996 36.7081 210.482 37.7009C211.968 38.6937 213.126 40.1048 213.81 41.7558C214.494 43.4068 214.673 45.2235 214.324 46.9762C213.975 48.7288 213.115 50.3387 211.851 51.6024C210.588 52.866 208.978 53.7265 207.225 54.0751C205.472 54.4237 203.656 54.2448 202.005 53.561C200.354 52.8771 198.943 51.719 197.95 50.2332C196.957 48.7473 196.427 47.0005 196.427 45.2135C196.427 42.8172 197.379 40.519 199.073 38.8246C200.768 37.1301 203.066 36.1782 205.462 36.1782ZM36.0514 225.919C36.0605 221.063 37.4896 216.316 40.1626 212.263C42.8355 208.209 46.6357 205.026 51.0951 203.105V248.733C46.6357 246.811 42.8355 243.628 40.1626 239.575C37.4896 235.521 36.0605 230.774 36.0514 225.919ZM245.353 320.789H164.036V307.236C164.036 304.839 164.988 302.541 166.682 300.847C168.377 299.152 170.675 298.201 173.071 298.201H236.318C238.714 298.201 241.012 299.152 242.707 300.847C244.401 302.541 245.353 304.839 245.353 307.236V320.789ZM322.153 266.577C322.144 278.589 318.146 290.257 310.787 299.75C303.428 309.244 293.124 316.024 281.494 319.027V307.236C281.494 295.254 276.734 283.764 268.262 275.291C259.79 266.819 248.299 262.06 236.318 262.06H173.071C161.089 262.06 149.599 266.819 141.127 275.291C132.654 283.764 127.895 295.254 127.895 307.236V318.982C116.265 315.979 105.961 309.198 98.602 299.705C91.2429 290.212 87.245 278.544 87.2361 266.532V185.215C87.2361 170.837 92.9476 157.048 103.114 146.881C113.281 136.715 127.07 131.003 141.448 131.003H267.941C282.319 131.003 296.108 136.715 306.274 146.881C316.441 157.048 322.153 170.837 322.153 185.215V266.577ZM358.294 249.32V202.517C363.142 204.219 367.341 207.385 370.312 211.577C373.283 215.769 374.879 220.78 374.879 225.919C374.879 231.057 373.283 236.068 370.312 240.26C367.341 244.452 363.142 247.618 358.294 249.32Z" fill="url(#paint0_linear_812_122)"/>
<path d="M151.252 153.629C142.317 153.629 133.583 156.278 126.154 161.242C118.725 166.207 112.934 173.262 109.515 181.517C106.096 189.772 105.201 198.855 106.944 207.619C108.687 216.382 112.99 224.432 119.308 230.75C125.626 237.068 133.676 241.37 142.439 243.113C151.202 244.857 160.286 243.962 168.541 240.543C176.796 237.123 183.851 231.333 188.815 223.904C193.779 216.475 196.429 207.74 196.429 198.805C196.429 192.873 195.26 186.998 192.99 181.517C190.72 176.036 187.392 171.056 183.197 166.861C179.002 162.666 174.022 159.338 168.541 157.068C163.06 154.797 157.185 153.629 151.252 153.629ZM151.252 207.84C149.465 207.84 147.719 207.311 146.233 206.318C144.747 205.325 143.589 203.914 142.905 202.263C142.221 200.612 142.042 198.795 142.391 197.042C142.739 195.29 143.6 193.68 144.864 192.416C146.127 191.153 147.737 190.292 149.49 189.944C151.242 189.595 153.059 189.774 154.71 190.458C156.361 191.142 157.772 192.3 158.765 193.785C159.758 195.271 160.288 197.018 160.288 198.805C160.288 201.201 159.336 203.5 157.641 205.194C155.947 206.888 153.649 207.84 151.252 207.84Z" fill="url(#paint1_linear_812_122)"/>
<path d="M259.678 153.629C250.743 153.629 242.009 156.278 234.58 161.242C227.15 166.207 221.36 173.262 217.941 181.517C214.522 189.772 213.627 198.855 215.37 207.619C217.113 216.382 221.416 224.432 227.734 230.75C234.052 237.068 242.101 241.37 250.865 243.113C259.628 244.857 268.712 243.962 276.966 240.543C285.221 237.123 292.277 231.333 297.241 223.904C302.205 216.475 304.854 207.74 304.854 198.805C304.854 186.824 300.095 175.333 291.623 166.861C283.15 158.389 271.66 153.629 259.678 153.629ZM259.678 207.84C257.891 207.84 256.144 207.311 254.659 206.318C253.173 205.325 252.015 203.914 251.331 202.263C250.647 200.612 250.468 198.795 250.817 197.042C251.165 195.29 252.026 193.68 253.289 192.416C254.553 191.153 256.163 190.292 257.916 189.944C259.668 189.595 261.485 189.774 263.136 190.458C264.787 191.142 266.198 192.3 267.191 193.785C268.184 195.271 268.713 197.018 268.713 198.805C268.713 201.201 267.762 203.5 266.067 205.194C264.373 206.888 262.075 207.84 259.678 207.84Z" fill="url(#paint2_linear_812_122)"/>
<defs>
<linearGradient id="paint0_linear_812_122" x1="-71.0227" y1="-30.8541" x2="428.465" y2="450.586" gradientUnits="userSpaceOnUse">
<stop stop-color="#5764F9"/>
<stop offset="0.295" stop-color="#4CB4FE"/>
<stop offset="0.69" stop-color="#4544D4"/>
<stop offset="0.955" stop-color="#A8A7F6"/>
</linearGradient>
<linearGradient id="paint1_linear_812_122" x1="90.4628" y1="145.819" x2="215.013" y2="250.075" gradientUnits="userSpaceOnUse">
<stop stop-color="#5764F9"/>
<stop offset="0.295" stop-color="#4CB4FE"/>
<stop offset="0.69" stop-color="#4544D4"/>
<stop offset="0.955" stop-color="#A8A7F6"/>
</linearGradient>
<linearGradient id="paint2_linear_812_122" x1="198.889" y1="145.819" x2="323.438" y2="250.075" gradientUnits="userSpaceOnUse">
<stop stop-color="#5764F9"/>
<stop offset="0.295" stop-color="#4CB4FE"/>
<stop offset="0.69" stop-color="#4544D4"/>
<stop offset="0.955" stop-color="#A8A7F6"/>
</linearGradient>
</defs>
</svg>
