<svg width="30" height="32" viewBox="0 0 30 32" fill="none" xmlns="http://www.w3.org/2000/svg">
<path d="M5.5161 6.91317C4.02827 6.91433 3.2484 6.93324 2.64389 7.24125C2.07738 7.52989 1.61679 7.99048 1.32815 8.557C1 9.20103 1 10.0441 1 11.7303V26.1819C1 27.8681 1 28.7112 1.32815 29.3552C1.61679 29.9217 2.07738 30.3824 2.64389 30.6709C3.28792 30.9991 4.131 30.9991 5.81717 30.9991H17.258C18.9441 30.9991 19.7873 30.9991 20.4313 30.6709C20.9977 30.3824 21.4584 29.9217 21.747 29.3552C22.0751 28.7112 22.0751 27.8681 22.0751 26.1819V11.7303C22.0751 10.0441 22.0751 9.20103 21.747 8.557C21.4584 7.99048 20.9977 7.52989 20.4313 7.24125C19.8267 6.93324 19.0469 6.91433 17.559 6.91317M5.5161 6.91317V9.92385H17.559V6.91317M5.5161 6.91317V6.47219C5.5161 5.79061 5.78686 5.13696 6.26878 4.65503C6.75071 4.1731 7.40436 3.90234 8.08593 3.90234H14.9892C15.6707 3.90234 16.3245 4.1731 16.8064 4.65503C17.2882 5.13696 17.559 5.79061 17.559 6.47219V6.91317M11.5376 15.9454H7.02147M16.0537 21.9669H7.02147" stroke="#7F7F7F" stroke-width="2" stroke-linecap="round" stroke-linejoin="round"/>
<path d="M22.2891 4.22581H28.7407M25.5149 1V7.45161" stroke="#7F7F7F" stroke-width="2" stroke-linecap="round" stroke-linejoin="round"/>
</svg>
